<?xml version="1.0" encoding="UTF-8"?>
<!DOCTYPE svg PUBLIC "-//W3C//DTD SVG 1.1//EN" "http://www.w3.org/Graphics/SVG/1.1/DTD/svg11.dtd">
<!-- Creator: CorelDRAW 2019 (64-Bit) -->
<svg xmlns="http://www.w3.org/2000/svg" xml:space="preserve" width="71.728mm" height="71.728mm" version="1.1" style="shape-rendering:geometricPrecision; text-rendering:geometricPrecision; image-rendering:optimizeQuality; fill-rule:evenodd; clip-rule:evenodd"
viewBox="0 0 37.16 37.16"
 xmlns:xlink="http://www.w3.org/1999/xlink"
 xmlns:xodm="http://www.corel.com/coreldraw/odm/2003">
 <defs>
  <style type="text/css">
   <![CDATA[
    .fil2 {fill:#55960C}
    .fil1 {fill:#6BAB11}
    .fil0 {fill:#87CD37}
    .fil3 {fill:white;fill-rule:nonzero}
   ]]>
  </style>
 </defs>
 <g id="Слой_x0020_1">
  <metadata id="CorelCorpID_0Corel-Layer"/>
  <polygon class="fil0" points="37.16,33.03 37.16,20.24 16.91,0 4.13,0 "/>
  <polygon class="fil1" points="-0,4.13 4.13,0 8.26,4.13 "/>
  <polygon class="fil1" points="33.03,37.16 37.16,33.03 33.03,28.9 "/>
  <polygon class="fil2" points="8.26,4.13 4.13,0 6.19,4.13 "/>
  <polygon class="fil2" points="33.03,28.9 37.16,33.03 33.03,30.97 "/>
  <path class="fil3" d="M13.96 1.79l0.54 0.54c0.25,0.25 0.4,0.47 0.44,0.66 0.04,0.19 -0.02,0.36 -0.18,0.52 -0.11,0.11 -0.22,0.17 -0.35,0.18 -0.13,0.02 -0.25,-0.02 -0.37,-0.1l-0.01 0.01c0.1,0.15 0.15,0.29 0.14,0.43 -0.01,0.13 -0.08,0.26 -0.2,0.38 -0.16,0.16 -0.35,0.24 -0.56,0.21 -0.21,-0.02 -0.41,-0.13 -0.62,-0.34l-0.66 -0.66 1.83 -1.83 -0 -0zm-0.46 1.06l0.29 0.29c0.13,0.13 0.24,0.2 0.33,0.21 0.1,0.02 0.19,-0.02 0.29,-0.12 0.09,-0.09 0.12,-0.18 0.09,-0.28 -0.02,-0.1 -0.1,-0.22 -0.24,-0.35l-0.26 -0.26 -0.51 0.51 0 0zm-0.24 0.24l-0.58 0.58 0.32 0.32c0.13,0.13 0.24,0.2 0.36,0.21 0.11,0.02 0.22,-0.03 0.32,-0.13 0.09,-0.09 0.13,-0.2 0.11,-0.31 -0.02,-0.11 -0.09,-0.23 -0.23,-0.37l-0.3 -0.3 0 -0z"/>
  <polygon id="_1" class="fil3" points="15.53,7.01 14.49,5.98 16.32,4.15 17.36,5.18 17.1,5.43 16.37,4.7 15.87,5.2 16.56,5.89 16.31,6.14 15.62,5.45 15.04,6.02 15.78,6.76 "/>
  <path id="_2" class="fil3" d="M18.14 8.63c-0.16,0.16 -0.35,0.23 -0.56,0.21 -0.21,-0.02 -0.42,-0.14 -0.63,-0.35 -0.21,-0.21 -0.34,-0.41 -0.41,-0.6l0.28 -0.28c0.04,0.12 0.1,0.24 0.17,0.36 0.07,0.12 0.15,0.21 0.23,0.3 0.12,0.12 0.23,0.18 0.33,0.19 0.1,0.01 0.19,-0.02 0.27,-0.1 0.07,-0.07 0.1,-0.15 0.1,-0.25 -0,-0.1 -0.06,-0.26 -0.15,-0.49 -0.1,-0.23 -0.14,-0.43 -0.12,-0.58 0.02,-0.16 0.09,-0.29 0.21,-0.42 0.15,-0.15 0.33,-0.22 0.52,-0.2 0.2,0.02 0.39,0.12 0.57,0.31 0.18,0.18 0.31,0.39 0.41,0.64l-0.34 0.15c-0.09,-0.23 -0.21,-0.41 -0.33,-0.54 -0.1,-0.1 -0.19,-0.15 -0.28,-0.16 -0.09,-0.01 -0.17,0.02 -0.24,0.09 -0.05,0.05 -0.08,0.1 -0.09,0.15 -0.01,0.05 -0.01,0.12 0,0.19 0.02,0.08 0.06,0.2 0.13,0.37 0.08,0.19 0.13,0.34 0.14,0.45 0.01,0.11 0.01,0.21 -0.03,0.3 -0.03,0.09 -0.09,0.18 -0.17,0.26l-0 -0z"/>
  <polygon id="_3" class="fil3" points="19.3,10.78 19,10.48 20.57,8.91 20.03,8.37 20.29,8.11 21.66,9.49 21.41,9.75 20.87,9.21 "/>
  <polygon id="_4" class="fil3" points="21.19,11.55 21.44,11.3 22.09,11.95 21.84,12.2 "/>
  <path id="_5" class="fil3" d="M23.82 14.32c-0.16,0.16 -0.35,0.23 -0.56,0.21 -0.21,-0.02 -0.42,-0.14 -0.63,-0.35 -0.21,-0.21 -0.34,-0.41 -0.41,-0.6l0.28 -0.28c0.04,0.12 0.1,0.24 0.17,0.36 0.07,0.12 0.15,0.21 0.23,0.3 0.12,0.12 0.23,0.18 0.33,0.19 0.1,0.01 0.19,-0.02 0.27,-0.1 0.07,-0.07 0.1,-0.15 0.1,-0.25 -0,-0.1 -0.05,-0.26 -0.15,-0.49 -0.1,-0.23 -0.14,-0.43 -0.12,-0.58 0.02,-0.16 0.09,-0.29 0.21,-0.42 0.15,-0.15 0.33,-0.22 0.52,-0.2 0.2,0.02 0.39,0.12 0.57,0.31 0.18,0.18 0.31,0.39 0.41,0.64l-0.34 0.15c-0.09,-0.23 -0.21,-0.41 -0.33,-0.54 -0.1,-0.1 -0.19,-0.15 -0.28,-0.16 -0.09,-0.01 -0.17,0.02 -0.24,0.09 -0.05,0.05 -0.08,0.1 -0.09,0.15 -0.01,0.05 -0.01,0.12 0,0.19 0.02,0.08 0.06,0.2 0.13,0.37 0.08,0.19 0.13,0.34 0.14,0.45 0.01,0.11 0.01,0.21 -0.03,0.3 -0.03,0.09 -0.09,0.18 -0.17,0.26l-0 0z"/>
  <polygon id="_6" class="fil3" points="25.38,16.87 24.35,15.83 26.18,14 27.21,15.04 26.96,15.29 26.23,14.56 25.73,15.05 26.42,15.74 26.17,15.99 25.48,15.3 24.9,15.88 25.64,16.61 "/>
  <polygon id="_7" class="fil3" points="26.45,17.93 28.28,16.1 28.58,16.4 27,17.97 27.78,18.75 27.52,19.01 "/>
  <polygon id="_8" class="fil3" points="28.5,19.99 30.33,18.16 30.63,18.46 29.06,20.03 29.83,20.8 29.58,21.06 "/>
  <polygon id="_9" class="fil3" points="31.59,23.08 30.56,22.04 32.39,20.21 33.42,21.25 33.17,21.5 32.43,20.76 31.94,21.26 32.63,21.95 32.37,22.2 31.69,21.51 31.11,22.09 31.85,22.82 "/>
  <path id="_10" class="fil3" d="M33.93 23.46l0.21 0.21c0.14,0.14 0.27,0.21 0.38,0.23 0.11,0.01 0.22,-0.03 0.32,-0.14 0.1,-0.1 0.14,-0.21 0.12,-0.32 -0.02,-0.11 -0.1,-0.24 -0.24,-0.37l-0.2 -0.2 -0.6 0.6 0 -0zm-0.25 0.25l-0.73 0.73 -0.3 -0.3 1.83 -1.83 0.52 0.52c0.24,0.24 0.37,0.46 0.39,0.66 0.02,0.2 -0.05,0.39 -0.23,0.57 -0.23,0.23 -0.51,0.27 -0.84,0.13l-0.29 1.33 -0.34 -0.34 0.29 -1.17 -0.29 -0.3 0 0z"/>
 </g>
</svg>
